<svg width="25" height="25" viewBox="0 0 25 25" fill="none" xmlns="http://www.w3.org/2000/svg">
<g clip-path="url(#clip0_527_104)">
<path d="M22.6562 4.6875C22.8635 4.6875 23.0622 4.76981 23.2087 4.91632C23.3552 5.06284 23.4375 5.26155 23.4375 5.46875V19.5312C23.4375 19.7385 23.3552 19.9372 23.2087 20.0837C23.0622 20.2302 22.8635 20.3125 22.6562 20.3125H2.34375C2.13655 20.3125 1.93784 20.2302 1.79132 20.0837C1.64481 19.9372 1.5625 19.7385 1.5625 19.5312V5.46875C1.5625 5.26155 1.64481 5.06284 1.79132 4.91632C1.93784 4.76981 2.13655 4.6875 2.34375 4.6875H22.6562ZM2.34375 3.125C1.72215 3.125 1.12601 3.37193 0.686468 3.81147C0.24693 4.25101 0 4.84715 0 5.46875L0 19.5312C0 20.1529 0.24693 20.749 0.686468 21.1885C1.12601 21.6281 1.72215 21.875 2.34375 21.875H22.6562C23.2779 21.875 23.874 21.6281 24.3135 21.1885C24.7531 20.749 25 20.1529 25 19.5312V5.46875C25 4.84715 24.7531 4.25101 24.3135 3.81147C23.874 3.37193 23.2779 3.125 22.6562 3.125H2.34375Z" fill="white"/>
<path d="M7.8125 12.5C7.8125 12.2928 7.89481 12.0941 8.04132 11.9476C8.18784 11.8011 8.38655 11.7188 8.59375 11.7188H19.5312C19.7385 11.7188 19.9372 11.8011 20.0837 11.9476C20.2302 12.0941 20.3125 12.2928 20.3125 12.5C20.3125 12.7072 20.2302 12.9059 20.0837 13.0524C19.9372 13.1989 19.7385 13.2812 19.5312 13.2812H8.59375C8.38655 13.2812 8.18784 13.1989 8.04132 13.0524C7.89481 12.9059 7.8125 12.7072 7.8125 12.5ZM7.8125 8.59375C7.8125 8.38655 7.89481 8.18784 8.04132 8.04132C8.18784 7.89481 8.38655 7.8125 8.59375 7.8125H19.5312C19.7385 7.8125 19.9372 7.89481 20.0837 8.04132C20.2302 8.18784 20.3125 8.38655 20.3125 8.59375C20.3125 8.80095 20.2302 8.99966 20.0837 9.14618C19.9372 9.29269 19.7385 9.375 19.5312 9.375H8.59375C8.38655 9.375 8.18784 9.29269 8.04132 9.14618C7.89481 8.99966 7.8125 8.80095 7.8125 8.59375ZM7.8125 16.4062C7.8125 16.199 7.89481 16.0003 8.04132 15.8538C8.18784 15.7073 8.38655 15.625 8.59375 15.625H19.5312C19.7385 15.625 19.9372 15.7073 20.0837 15.8538C20.2302 16.0003 20.3125 16.199 20.3125 16.4062C20.3125 16.6135 20.2302 16.8122 20.0837 16.9587C19.9372 17.1052 19.7385 17.1875 19.5312 17.1875H8.59375C8.38655 17.1875 8.18784 17.1052 8.04132 16.9587C7.89481 16.8122 7.8125 16.6135 7.8125 16.4062ZM6.25 8.59375C6.25 8.80095 6.16769 8.99966 6.02118 9.14618C5.87466 9.29269 5.67595 9.375 5.46875 9.375C5.26155 9.375 5.06284 9.29269 4.91632 9.14618C4.76981 8.99966 4.6875 8.80095 4.6875 8.59375C4.6875 8.38655 4.76981 8.18784 4.91632 8.04132C5.06284 7.89481 5.26155 7.8125 5.46875 7.8125C5.67595 7.8125 5.87466 7.89481 6.02118 8.04132C6.16769 8.18784 6.25 8.38655 6.25 8.59375V8.59375ZM6.25 12.5C6.25 12.7072 6.16769 12.9059 6.02118 13.0524C5.87466 13.1989 5.67595 13.2812 5.46875 13.2812C5.26155 13.2812 5.06284 13.1989 4.91632 13.0524C4.76981 12.9059 4.6875 12.7072 4.6875 12.5C4.6875 12.2928 4.76981 12.0941 4.91632 11.9476C5.06284 11.8011 5.26155 11.7188 5.46875 11.7188C5.67595 11.7188 5.87466 11.8011 6.02118 11.9476C6.16769 12.0941 6.25 12.2928 6.25 12.5V12.5ZM6.25 16.4062C6.25 16.6135 6.16769 16.8122 6.02118 16.9587C5.87466 17.1052 5.67595 17.1875 5.46875 17.1875C5.26155 17.1875 5.06284 17.1052 4.91632 16.9587C4.76981 16.8122 4.6875 16.6135 4.6875 16.4062C4.6875 16.199 4.76981 16.0003 4.91632 15.8538C5.06284 15.7073 5.26155 15.625 5.46875 15.625C5.67595 15.625 5.87466 15.7073 6.02118 15.8538C6.16769 16.0003 6.25 16.199 6.25 16.4062V16.4062Z" fill="white"/>
</g>
<defs>
<clipPath id="clip0_527_104">
<rect width="25" height="25" fill="white"/>
</clipPath>
</defs>
</svg>
