<svg width="25" height="19" viewBox="0 0 25 19" fill="none" xmlns="http://www.w3.org/2000/svg">
<path d="M7.69141 10.2812H9.49609L8.59375 7.68262L7.69141 10.2812ZM17.1875 9.5C16.5415 9.5 16.0156 10.0259 16.0156 10.6719C16.0156 11.3179 16.5415 11.8438 17.1875 11.8438C17.8335 11.8438 18.3594 11.3179 18.3594 10.6719C18.3594 10.0259 17.8335 9.5 17.1875 9.5ZM22.6562 0.125H2.34375C1.0498 0.125 0 1.1748 0 2.46875V16.5312C0 17.8252 1.0498 18.875 2.34375 18.875H22.6562C23.9502 18.875 25 17.8252 25 16.5312V2.46875C25 1.1748 23.9502 0.125 22.6562 0.125ZM12.2354 14.1875H11.4082C11.0757 14.1875 10.7793 13.9766 10.6699 13.6626L10.3101 12.625H6.87793L6.51758 13.6626C6.46431 13.816 6.36459 13.9489 6.23228 14.043C6.09997 14.137 5.94164 14.1876 5.7793 14.1875H4.95215C4.41455 14.1875 4.0376 13.6577 4.21387 13.1499L6.83594 5.59961C6.91582 5.36968 7.06534 5.17034 7.26371 5.02929C7.46208 4.88823 7.69946 4.81246 7.94287 4.8125H9.24463C9.48811 4.81246 9.72555 4.88829 9.92393 5.02944C10.1223 5.17059 10.2718 5.37006 10.3516 5.6001L12.9731 13.1499C13.1494 13.6577 12.7725 14.1875 12.2354 14.1875V14.1875ZM20.7031 13.4062C20.7031 13.8379 20.3535 14.1875 19.9219 14.1875H19.1406C18.9038 14.1875 18.6992 14.0767 18.5557 13.9102C18.1348 14.0889 17.6724 14.1875 17.1875 14.1875C15.249 14.1875 13.6719 12.6104 13.6719 10.6719C13.6719 8.7334 15.249 7.15625 17.1875 7.15625C17.6006 7.15625 17.9912 7.24072 18.3594 7.37207V5.59375C18.3594 5.16211 18.709 4.8125 19.1406 4.8125H19.9219C20.3535 4.8125 20.7031 5.16211 20.7031 5.59375V13.4062Z" fill="white"/>
</svg>
