<svg width="25" height="23" viewBox="0 0 25 23" fill="none" xmlns="http://www.w3.org/2000/svg">
<path d="M21.1115 5.05773C17.7726 2.85157 13.3346 2.3494 9.648 3.01476C5.52344 -0.963538 0.901476 0.866323 0 1.39236C0 1.39236 3.17187 4.08768 2.65668 6.44835C-1.09852 10.2765 0.686632 14.5386 2.65668 16.5512C3.17187 18.9119 0 21.6072 0 21.6072C0.892795 22.135 5.50217 23.9592 9.648 20.0013C13.3264 20.6623 17.7643 20.1645 21.1115 17.9544C26.2878 14.6497 26.3047 8.37934 21.1115 5.0573V5.05773ZM12.7682 17.9332C11.4774 17.9369 10.1916 17.771 8.94401 17.4397L8.08594 18.2682C7.60931 18.7305 7.07563 19.13 6.49783 19.457C5.79681 19.81 5.03526 20.0269 4.25347 20.0964C4.29687 20.0191 4.33507 19.9418 4.3737 19.8689C5.2322 18.2775 5.46369 16.8497 5.06814 15.5855C3.65625 14.474 2.8112 13.0534 2.8112 11.5C2.8112 7.94098 7.2704 5.05773 12.7682 5.05773C18.2661 5.05773 22.7253 7.94098 22.7253 11.5C22.7253 15.059 18.2661 17.9332 12.7682 17.9332ZM7.99132 13.0321C7.59713 13.0377 7.21681 12.8868 6.9337 12.6124C6.65058 12.3381 6.48776 11.9627 6.4809 11.5686C6.45052 9.59853 9.42491 9.55556 9.45486 11.5213V11.5434C9.45669 11.7373 9.42028 11.9297 9.3477 12.1096C9.27512 12.2894 9.16779 12.4532 9.03187 12.5916C8.89594 12.7299 8.73408 12.8401 8.55553 12.9159C8.37698 12.9916 8.18526 13.0314 7.99132 13.033V13.0321ZM11.1931 11.5686C11.1589 9.59853 14.1332 9.55122 14.1675 11.5169V11.5434C14.1845 13.5 11.2274 13.5213 11.1931 11.5686ZM17.4162 13.0321C17.022 13.0377 16.6416 12.8868 16.3585 12.6125C16.0753 12.3382 15.9123 11.9628 15.9054 11.5686C15.8754 9.59853 18.8498 9.55556 18.8798 11.5213V11.5434C18.8822 11.7375 18.8463 11.9302 18.7739 12.1103C18.7015 12.2905 18.5943 12.4545 18.4582 12.593C18.3222 12.7314 18.16 12.8416 17.9812 12.9171C17.8024 12.9927 17.6104 13.032 17.4162 13.033V13.0321Z" fill="white"/>
</svg>
