<svg width="25" height="21" viewBox="0 0 25 21" fill="none" xmlns="http://www.w3.org/2000/svg">
<path d="M23.5339 0.779945C21.1554 0.914928 16.428 1.40625 13.5095 3.19271C13.3082 3.31597 13.194 3.53515 13.194 3.76432V19.5573C13.194 20.0586 13.7422 20.3754 14.2044 20.1428C17.207 18.6315 21.5495 18.2192 23.6966 18.1063C24.4297 18.0677 24.9996 17.48 24.9996 16.7756V2.11241C25 1.34375 24.3333 0.734806 23.5339 0.779945ZM11.49 3.19271C8.57205 1.40625 3.84462 0.915362 1.46615 0.779945C0.666667 0.734806 0 1.34375 0 2.11241V16.776C0 17.4809 0.569878 18.0686 1.30295 18.1068C3.45095 18.2196 7.79557 18.6324 10.7982 20.1445C11.2591 20.3767 11.8056 20.0603 11.8056 19.5603V3.75651C11.8056 3.52691 11.6918 3.3164 11.49 3.19271Z" fill="white"/>
</svg>
