<svg width="25" height="25" viewBox="0 0 25 25" fill="none" xmlns="http://www.w3.org/2000/svg">
<path d="M17.6074 2.97559C17.6547 3.02295 17.7109 3.06052 17.7727 3.08616C17.8346 3.11179 17.9008 3.12499 17.9678 3.12499C18.0347 3.12499 18.101 3.11179 18.1628 3.08616C18.2247 3.06052 18.2808 3.02295 18.3281 2.97559L19.3814 1.92285C19.4287 1.87555 19.4663 1.81938 19.4919 1.75755C19.5176 1.69572 19.5308 1.62944 19.5308 1.5625C19.5308 1.49556 19.5176 1.42928 19.4919 1.36745C19.4663 1.30562 19.4287 1.24945 19.3814 1.20215L18.3276 0.149414C18.1284 -0.0493164 17.8062 -0.0493164 17.6069 0.149414L16.5537 1.20215C16.5064 1.24945 16.4688 1.30562 16.4431 1.36745C16.4175 1.42928 16.4043 1.49556 16.4043 1.5625C16.4043 1.62944 16.4175 1.69572 16.4431 1.75755C16.4688 1.81938 16.5064 1.87555 16.5537 1.92285L17.6074 2.97559ZM20.1226 9.375C18.8193 9.375 17.5947 9.88232 16.6733 10.8032L15.4893 11.9873C15.1582 12.3179 14.7188 12.5 14.25 12.5H11.9629C12.4775 11.4209 12.6548 10.1509 12.3403 8.82666C11.8472 6.74902 10.0767 5.11035 7.96925 4.76465C6.20411 4.4751 4.50733 5.01074 3.28126 6.16992C2.92188 6.50977 2.94093 7.09033 3.33594 7.38721L4.6128 8.3457C4.8921 8.55566 5.27979 8.55664 5.5503 8.33545C5.9629 7.99854 6.47901 7.8125 7.02833 7.8125C8.32081 7.8125 9.37257 8.86377 9.37257 10.1562C9.37257 11.4487 8.32081 12.5 7.02833 12.5H5.47071C4.88673 12.5 4.50684 13.1143 4.76807 13.6367L5.55372 15.2075C5.67725 15.4546 5.92481 15.603 6.19678 15.625H7.80958C9.53321 15.625 10.9351 17.0264 10.9351 18.75C10.9351 20.4736 9.53321 21.875 7.80958 21.875C3.1211 21.875 1.83546 19.2373 0.722175 17.3813C0.500984 17.0127 0.000983741 17.2065 7.17832e-06 17.6362C-0.00438735 20.3125 2.00831 25 7.80958 25C11.2564 25 14.0606 22.1963 14.0606 18.75C14.0606 17.6064 13.7295 16.5479 13.1909 15.625H14.25C15.5532 15.625 16.7778 15.1177 17.6992 14.1968L18.8833 13.0127C19.2144 12.6821 19.6538 12.5 20.1226 12.5C21.0884 12.5 21.8745 13.2856 21.8745 14.252V19.1406C21.8745 19.7866 20.958 20.3125 20.3115 20.3125C18.3877 20.3125 17.0562 19.1289 16.3164 18.2183C16.0835 17.9316 15.6231 18.0942 15.6231 18.4634V20.3125C15.6231 20.3125 15.6231 23.4375 20.3115 23.4375C22.6816 23.4375 25 21.5103 25 19.1406V14.252C25 11.5625 22.8125 9.375 20.1226 9.375ZM22.1821 3.28467C18.0049 6.46436 13.9277 3.41895 13.7554 3.28711C13.4614 3.06152 13.0503 3.07324 12.772 3.31396C12.4917 3.5542 12.417 3.95703 12.5933 4.28076C12.6719 4.4248 14.5645 7.81299 18.3941 7.81299C22.2964 7.81299 23.2173 6.28174 23.3623 5.97412C23.4121 5.87061 23.437 5.75586 23.437 5.64062V3.90625C23.437 3.26074 22.6978 2.896 22.1821 3.28467Z" fill="white"/>
</svg>
