<svg width="20" height="20" viewBox="0 0 20 20" fill="none" xmlns="http://www.w3.org/2000/svg">
<path d="M16.6417 17.8211L13.845 15.0245C12.6384 15.5745 11.3259 15.8503 10 15.8353C8.63335 15.852 7.28085 15.557 6.04502 14.9728C5.08724 14.5055 4.2272 13.8601 3.51085 13.0711C2.75041 12.256 2.15275 11.3031 1.75002 10.2636L1.66669 10.002L1.75419 9.73862C2.35653 8.2022 3.37023 6.86126 4.68419 5.86279L2.50002 3.67862L3.67752 2.50195L17.8184 16.6428L16.6434 17.8211H16.6417V17.8211ZM5.86335 7.04279C4.79829 7.78938 3.95723 8.81254 3.43085 10.002C3.98245 11.2746 4.9036 12.3522 6.0749 13.0952C7.2462 13.8381 8.61366 14.2121 10 14.1686C10.8749 14.1758 11.7447 14.0349 12.5725 13.752L11.0725 12.252C10.7392 12.4153 10.3725 12.5011 10 12.502C9.33826 12.4978 8.70478 12.2331 8.23684 11.7651C7.7689 11.2972 7.50417 10.6637 7.50002 10.002C7.50002 9.62945 7.58585 9.26195 7.75002 8.92695L5.86335 7.04279ZM16.5434 13.0103L15.3834 11.8511C15.8714 11.2994 16.2714 10.6757 16.5692 10.002C16.0183 8.72875 15.0974 7.65062 13.9259 6.90758C12.7544 6.16453 11.3866 5.79093 10 5.83529C9.79419 5.83529 9.58752 5.84279 9.38752 5.85695L7.91669 4.38445C8.60169 4.23779 9.30002 4.16529 10 4.16862C11.3667 4.15195 12.7192 4.44695 13.955 5.03112C14.9134 5.49779 15.7725 6.14362 16.4892 6.93279C17.2493 7.74692 17.8469 8.69868 18.25 9.73695L18.3334 10.002L18.2459 10.2653C17.8557 11.2804 17.2785 12.2132 16.5442 13.0153L16.5434 13.0103V13.0103Z" fill="#ABAFB4"/>
</svg>
