<svg width="20" height="20" viewBox="0 0 20 20" fill="none" xmlns="http://www.w3.org/2000/svg">
<g clip-path="url(#clip0_789_2552)">
<path fill-rule="evenodd" clip-rule="evenodd" d="M10 14.6667C6.404 14.6667 3.37333 12.8293 1.46133 10C3.37333 7.17067 6.404 5.33333 10 5.33333C13.596 5.33333 16.6267 7.17067 18.5387 10C16.6267 12.8293 13.596 14.6667 10 14.6667ZM10 4C5.744 4 2.208 6.27467 0.101335 9.64667C0.0351131 9.75262 0 9.87505 0 10C0 10.1249 0.0351131 10.2474 0.101335 10.3533C2.208 13.7253 5.744 16 10 16C14.256 16 17.792 13.7253 19.8987 10.3533C19.9649 10.2474 20 10.1249 20 10C20 9.87505 19.9649 9.75262 19.8987 9.64667C17.792 6.27467 14.256 4 10 4ZM10 12.6667C10.7072 12.6667 11.3855 12.3857 11.8856 11.8856C12.3857 11.3855 12.6667 10.7072 12.6667 10C12.6667 9.29276 12.3857 8.61448 11.8856 8.11438C11.3855 7.61428 10.7072 7.33333 10 7.33333C9.29276 7.33333 8.61448 7.61428 8.11438 8.11438C7.61429 8.61448 7.33333 9.29276 7.33333 10C7.33333 10.7072 7.61429 11.3855 8.11438 11.8856C8.61448 12.3857 9.29276 12.6667 10 12.6667V12.6667Z" fill="#ABAFB4"/>
</g>
<defs>
<clipPath id="clip0_789_2552">
<rect width="20" height="20" fill="white"/>
</clipPath>
</defs>
</svg>
