<svg width="25" height="20" viewBox="0 0 25 20" fill="none" xmlns="http://www.w3.org/2000/svg">
<path d="M10.625 7.49682C9.9375 7.49682 9.375 8.05932 9.375 8.74682V11.8718C9.375 12.2171 9.09531 12.4968 8.75 12.4968C8.40469 12.4968 8.125 12.2171 8.125 11.8718V8.88158C8.125 8.20229 8.30938 7.5351 8.65977 6.95229L11.6969 1.89018C12.052 1.29799 11.8605 0.530412 11.2684 0.174943C10.7039 -0.163729 9.99023 0.00697412 9.61602 0.534708C9.6082 0.543693 9.5918 0.542912 9.58516 0.553458L5.00469 7.42455C4.59219 8.0433 4.375 8.76244 4.375 9.50385V12.6378L0.854688 13.8113C0.605769 13.8941 0.389246 14.0532 0.235834 14.266C0.0824217 14.4788 -9.11274e-05 14.7345 7.55246e-08 14.9968V18.7468C7.55246e-08 19.1695 0.332813 19.9968 1.25 19.9968C1.35508 19.9968 1.46133 19.9835 1.56484 19.9566L8.56445 18.1355C10.5141 17.5781 11.875 15.7738 11.875 13.7468V8.74682C11.875 8.05932 11.3125 7.49682 10.625 7.49682V7.49682ZM24.1453 13.8144L20.625 12.641V9.50697C20.625 8.76557 20.4078 8.04643 19.9953 7.42768L15.4148 0.556974C15.4078 0.546427 15.3918 0.547599 15.384 0.538224C15.0098 0.0104897 14.2961 -0.160213 13.7316 0.178459C13.1395 0.533537 12.948 1.30151 13.3031 1.89369L16.3402 6.9558C16.6906 7.53861 16.875 8.2058 16.875 8.8851V11.8753C16.875 12.2206 16.5953 12.5003 16.25 12.5003C15.9047 12.5003 15.625 12.2206 15.625 11.8753V8.75033C15.625 8.06283 15.0625 7.50033 14.375 7.50033C13.6875 7.50033 13.125 8.06283 13.125 8.75033V13.7503C13.125 15.7773 14.4859 17.5816 16.4355 18.1386L23.4352 19.9597C23.5391 19.9867 23.6453 19.9999 23.75 19.9999C24.6672 19.9999 25 19.1726 25 18.7499V14.9999C25 14.4621 24.6559 13.9847 24.1453 13.8144V13.8144Z" fill="white"/>
</svg>
