<svg width="25" height="17" viewBox="0 0 25 17" fill="none" xmlns="http://www.w3.org/2000/svg">
<path d="M23.9583 0.166672H3.81944C3.24414 0.166672 2.77778 0.633035 2.77778 1.20834V1.55556H1.04167C0.466363 1.55556 0 2.02192 0 2.59723V14.4028C0 15.7451 1.08819 16.8333 2.43056 16.8333H22.9167C24.0673 16.8333 25 15.9006 25 14.75V1.20834C25 0.633035 24.5336 0.166672 23.9583 0.166672ZM2.43056 14.75C2.33847 14.75 2.25015 14.7134 2.18503 14.6483C2.11992 14.5832 2.08333 14.4949 2.08333 14.4028V3.63889H2.77778V14.4028C2.77778 14.4949 2.7412 14.5832 2.67608 14.6483C2.61096 14.7134 2.52264 14.75 2.43056 14.75ZM12.6736 14.0556H6.07639C5.78876 14.0556 5.55556 13.8224 5.55556 13.5347V13.1875C5.55556 12.8999 5.78876 12.6667 6.07639 12.6667H12.6736C12.9612 12.6667 13.1944 12.8999 13.1944 13.1875V13.5347C13.1944 13.8224 12.9612 14.0556 12.6736 14.0556ZM21.7014 14.0556H15.1042C14.8165 14.0556 14.5833 13.8224 14.5833 13.5347V13.1875C14.5833 12.8999 14.8165 12.6667 15.1042 12.6667H21.7014C21.989 12.6667 22.2222 12.8999 22.2222 13.1875V13.5347C22.2222 13.8224 21.989 14.0556 21.7014 14.0556ZM12.6736 9.88889H6.07639C5.78876 9.88889 5.55556 9.65569 5.55556 9.36806V9.02084C5.55556 8.73321 5.78876 8.5 6.07639 8.5H12.6736C12.9612 8.5 13.1944 8.73321 13.1944 9.02084V9.36806C13.1944 9.65569 12.9612 9.88889 12.6736 9.88889ZM21.7014 9.88889H15.1042C14.8165 9.88889 14.5833 9.65569 14.5833 9.36806V9.02084C14.5833 8.73321 14.8165 8.5 15.1042 8.5H21.7014C21.989 8.5 22.2222 8.73321 22.2222 9.02084V9.36806C22.2222 9.65569 21.989 9.88889 21.7014 9.88889ZM21.7014 5.72223H6.07639C5.78876 5.72223 5.55556 5.48902 5.55556 5.20139V3.46528C5.55556 3.17765 5.78876 2.94445 6.07639 2.94445H21.7014C21.989 2.94445 22.2222 3.17765 22.2222 3.46528V5.20139C22.2222 5.48902 21.989 5.72223 21.7014 5.72223Z" fill="white"/>
</svg>
