<svg width="25" height="23" viewBox="0 0 25 23" fill="none" xmlns="http://www.w3.org/2000/svg">
<path d="M1.5625 20.875C1.5625 21.7393 2.26074 22.4375 3.125 22.4375H10.9375V14.625H1.5625V20.875ZM14.0625 22.4375H21.875C22.7393 22.4375 23.4375 21.7393 23.4375 20.875V14.625H14.0625V22.4375ZM23.4375 6.8125H21.3818C21.6846 6.22168 21.875 5.56738 21.875 4.85938C21.875 2.49121 19.9463 0.5625 17.5781 0.5625C15.5469 0.5625 14.2334 1.60254 12.5488 3.89746C10.8643 1.60254 9.55078 0.5625 7.51953 0.5625C5.15137 0.5625 3.22266 2.49121 3.22266 4.85938C3.22266 5.56738 3.4082 6.22168 3.71582 6.8125H1.5625C0.698242 6.8125 0 7.51074 0 8.375V12.2812C0 12.7109 0.351562 13.0625 0.78125 13.0625H24.2188C24.6484 13.0625 25 12.7109 25 12.2812V8.375C25 7.51074 24.3018 6.8125 23.4375 6.8125ZM7.51465 6.8125C6.43555 6.8125 5.56152 5.93848 5.56152 4.85938C5.56152 3.78027 6.43555 2.90625 7.51465 2.90625C8.48633 2.90625 9.2041 3.06738 11.7188 6.8125H7.51465ZM17.5781 6.8125H13.374C15.8838 3.07715 16.582 2.90625 17.5781 2.90625C18.6572 2.90625 19.5312 3.78027 19.5312 4.85938C19.5312 5.93848 18.6572 6.8125 17.5781 6.8125Z" fill="white"/>
</svg>
