<svg width="25" height="25" viewBox="0 0 25 25" fill="none" xmlns="http://www.w3.org/2000/svg">
<path d="M21.875 17.71L16.1475 16.6699C15.625 15.625 15.625 15.1709 15.625 14.585C16.1475 14.0625 17.1875 13.5449 17.1875 13.0225C17.71 11.46 17.71 10.4199 17.71 10.4199C17.9785 10.0293 18.75 9.37988 18.75 8.33496C18.75 7.29004 17.71 6.25 17.71 5.73242C17.71 1.5625 15.5859 0 12.5 0C9.5459 0 7.29004 1.5625 7.29004 5.72754C7.29004 6.25 6.25 7.29004 6.25 8.33008C6.25 9.37012 6.99219 10.0586 7.29004 10.415C7.29004 10.415 7.29004 11.4551 7.8125 13.0176C7.8125 13.54 8.85254 14.0576 9.375 14.5801C9.375 15.1025 9.375 15.6201 8.85254 16.665L3.125 17.71C1.04004 18.2275 0 21.875 0 25H25C25 21.875 23.96 18.2275 21.875 17.71Z" fill="white"/>
</svg>
