<svg width="36" height="36" viewBox="0 0 36 36" fill="none" xmlns="http://www.w3.org/2000/svg">
<path d="M21 12H7C6.73478 12 6.48043 11.8946 6.29289 11.7071C6.10536 11.5196 6 11.2652 6 11V7C6 6.73478 6.10536 6.48043 6.29289 6.29289C6.48043 6.10536 6.73478 6 7 6H21C21.2652 6 21.5196 6.10536 21.7071 6.29289C21.8946 6.48043 22 6.73478 22 7V11C22 11.2652 21.8946 11.5196 21.7071 11.7071C21.5196 11.8946 21.2652 12 21 12ZM8 10H20V7.94H8V10Z" fill="white"/>
<path d="M21 14.08H7C6.73478 14.08 6.48043 14.1854 6.29289 14.3729C6.10536 14.5604 6 14.8148 6 15.08V19C6 19.2652 6.10536 19.5196 6.29289 19.7071C6.48043 19.8947 6.73478 20 7 20H18.36L22 16.3V15.08C22 14.8148 21.8946 14.5604 21.7071 14.3729C21.5196 14.1854 21.2652 14.08 21 14.08ZM20 18H8V16H20V18Z" fill="white"/>
<path d="M11.06 31.51V31.45L11.38 30.06H4V4H24V14.25L26 12.36V3C26 2.73478 25.8946 2.48043 25.7071 2.29289C25.5196 2.10536 25.2652 2 25 2H3C2.73478 2 2.48043 2.10536 2.29289 2.29289C2.10536 2.48043 2 2.73478 2 3V31C2 31.2652 2.10536 31.5196 2.29289 31.7071C2.48043 31.8946 2.73478 32 3 32H11C11.0082 31.8354 11.0283 31.6717 11.06 31.51V31.51Z" fill="white"/>
<path d="M21.9997 19.17L21.2197 19.96C21.4132 19.9201 21.5906 19.8238 21.7294 19.6832C21.8682 19.5426 21.9623 19.364 21.9997 19.17Z" fill="white"/>
<path d="M6 26.94C6 27.2052 6.10536 27.4596 6.29289 27.6471C6.48043 27.8346 6.73478 27.94 7 27.94H11.84L12.14 26.64L12.27 26.09V26.04H8V24H14.34L16.34 22H7C6.73478 22 6.48043 22.1054 6.29289 22.2929C6.10536 22.4804 6 22.7348 6 23V26.94Z" fill="white"/>
<path d="M33.4902 16.67L30.1202 13.3C29.9707 13.1501 29.793 13.0311 29.5974 12.9499C29.4017 12.8687 29.192 12.8269 28.9802 12.8269C28.7684 12.8269 28.5587 12.8687 28.3631 12.9499C28.1675 13.0311 27.9898 13.1501 27.8402 13.3L14.1302 27.09L13.0002 31.9C12.9579 32.1075 12.957 32.3214 12.9974 32.5292C13.0379 32.7371 13.119 32.935 13.236 33.1115C13.353 33.2879 13.5038 33.4396 13.6795 33.5578C13.8553 33.6759 14.0526 33.7583 14.2602 33.8C14.3633 33.8104 14.4672 33.8104 14.5702 33.8C14.6928 33.82 14.8177 33.82 14.9402 33.8L19.7902 32.73L33.4902 19C33.6399 18.8513 33.7587 18.6745 33.8397 18.4797C33.9208 18.2849 33.9625 18.076 33.9625 17.865C33.9625 17.654 33.9208 17.4451 33.8397 17.2504C33.7587 17.0556 33.6399 16.8787 33.4902 16.73V16.67ZM18.7702 30.91L15.1102 31.72L16.0002 28.09L26.2802 17.7L29.1002 20.52L18.7702 30.91ZM30.2302 19.39L27.4102 16.57L29.0002 15L31.8402 17.84L30.2302 19.39Z" fill="white"/>
</svg>
