<svg width="25" height="25" viewBox="0 0 25 25" fill="none" xmlns="http://www.w3.org/2000/svg">
<path d="M14.5837 8.33335H4.86144C4.67726 8.33335 4.50062 8.26019 4.37039 8.12996C4.24016 7.99972 4.16699 7.82309 4.16699 7.63891V4.86113C4.16699 4.67695 4.24016 4.50032 4.37039 4.37009C4.50062 4.23985 4.67726 4.16669 4.86144 4.16669H14.5837C14.7678 4.16669 14.9445 4.23985 15.0747 4.37009C15.2049 4.50032 15.2781 4.67695 15.2781 4.86113V7.63891C15.2781 7.82309 15.2049 7.99972 15.0747 8.12996C14.9445 8.26019 14.7678 8.33335 14.5837 8.33335ZM5.55588 6.94446H13.8892V5.51391H5.55588V6.94446Z" fill="white"/>
<path d="M14.5837 9.77777H4.86144C4.67726 9.77777 4.50062 9.85094 4.37039 9.98117C4.24016 10.1114 4.16699 10.288 4.16699 10.4722V13.1944C4.16699 13.3786 4.24016 13.5553 4.37039 13.6855C4.50062 13.8157 4.67726 13.8889 4.86144 13.8889H12.7503L15.2781 11.3194V10.4722C15.2781 10.288 15.2049 10.1114 15.0747 9.98117C14.9445 9.85094 14.7678 9.77777 14.5837 9.77777ZM13.8892 12.5H5.55588V11.1111H13.8892V12.5Z" fill="white"/>
<path d="M7.68034 21.882V21.8403L7.90256 20.875H2.77756V2.7778H16.6664V9.89586L18.0553 8.58336V2.08336C18.0553 1.89918 17.9822 1.72255 17.8519 1.59231C17.7217 1.46208 17.5451 1.38892 17.3609 1.38892H2.08312C1.89894 1.38892 1.7223 1.46208 1.59207 1.59231C1.46184 1.72255 1.38867 1.89918 1.38867 2.08336V21.5278C1.38867 21.712 1.46184 21.8886 1.59207 22.0189C1.7223 22.1491 1.89894 22.2223 2.08312 22.2223H7.63867C7.64439 22.108 7.65832 21.9943 7.68034 21.882V21.882Z" fill="white"/>
<path d="M15.278 13.3125L14.7363 13.8611C14.8707 13.8334 14.9939 13.7665 15.0903 13.6689C15.1867 13.5712 15.252 13.4472 15.278 13.3125Z" fill="white"/>
<path d="M4.16699 18.7083C4.16699 18.8925 4.24016 19.0691 4.37039 19.1994C4.50062 19.3296 4.67726 19.4028 4.86144 19.4028H8.22255L8.43088 18.5L8.52116 18.118V18.0833H5.55588V16.6667H9.95866L11.3475 15.2778H4.86144C4.67726 15.2778 4.50062 15.3509 4.37039 15.4812C4.24016 15.6114 4.16699 15.788 4.16699 15.9722V18.7083Z" fill="white"/>
<path d="M23.2566 11.5764L20.9163 9.23609C20.8124 9.13194 20.6891 9.04931 20.5532 8.99293C20.4174 8.93655 20.2717 8.90753 20.1246 8.90753C19.9776 8.90753 19.8319 8.93655 19.6961 8.99293C19.5602 9.04931 19.4368 9.13194 19.333 9.23609L9.81214 18.8125L9.02742 22.1528C8.99804 22.2969 8.99738 22.4453 9.02548 22.5897C9.05357 22.7341 9.10987 22.8715 9.19115 22.994C9.27243 23.1166 9.3771 23.2219 9.49915 23.304C9.6212 23.386 9.75824 23.4432 9.90242 23.4722C9.974 23.4794 10.0461 23.4794 10.1177 23.4722C10.2028 23.4861 10.2896 23.4861 10.3746 23.4722L13.7427 22.7291L23.2566 13.1944C23.3605 13.0912 23.443 12.9683 23.4993 12.8331C23.5556 12.6978 23.5845 12.5527 23.5845 12.4062C23.5845 12.2597 23.5556 12.1146 23.4993 11.9794C23.443 11.8441 23.3605 11.7213 23.2566 11.618V11.5764ZM13.0344 21.4653L10.4927 22.0278L11.1108 19.5069L18.2496 12.2916L20.208 14.25L13.0344 21.4653ZM20.9927 13.4653L19.0344 11.5069L20.1385 10.4166L22.1108 12.3889L20.9927 13.4653Z" fill="white"/>
</svg>
