<svg width="30" height="30" viewBox="0 0 30 30" fill="none" xmlns="http://www.w3.org/2000/svg">
<path d="M17.5 10H5.83333C5.61232 10 5.40036 9.9122 5.24408 9.75592C5.0878 9.59964 5 9.38768 5 9.16667V5.83333C5 5.61232 5.0878 5.40036 5.24408 5.24408C5.40036 5.0878 5.61232 5 5.83333 5H17.5C17.721 5 17.933 5.0878 18.0893 5.24408C18.2455 5.40036 18.3333 5.61232 18.3333 5.83333V9.16667C18.3333 9.38768 18.2455 9.59964 18.0893 9.75592C17.933 9.9122 17.721 10 17.5 10ZM6.66667 8.33333H16.6667V6.61667H6.66667V8.33333Z" fill="white"/>
<path d="M17.5 11.7333H5.83333C5.61232 11.7333 5.40036 11.8211 5.24408 11.9774C5.0878 12.1337 5 12.3457 5 12.5667V15.8333C5 16.0544 5.0878 16.2663 5.24408 16.4226C5.40036 16.5789 5.61232 16.6667 5.83333 16.6667H15.3L18.3333 13.5833V12.5667C18.3333 12.3457 18.2455 12.1337 18.0893 11.9774C17.933 11.8211 17.721 11.7333 17.5 11.7333ZM16.6667 15H6.66667V13.3333H16.6667V15Z" fill="white"/>
<path d="M9.21699 26.2584V26.2084L9.48366 25.05H3.33366V3.33335H20.0003V11.875L21.667 10.3V2.50002C21.667 2.27901 21.5792 2.06704 21.4229 1.91076C21.2666 1.75448 21.0547 1.66669 20.8337 1.66669H2.50033C2.27931 1.66669 2.06735 1.75448 1.91107 1.91076C1.75479 2.06704 1.66699 2.27901 1.66699 2.50002V25.8334C1.66699 26.0544 1.75479 26.2663 1.91107 26.4226C2.06735 26.5789 2.27931 26.6667 2.50033 26.6667H9.16699C9.17386 26.5296 9.19057 26.3931 9.21699 26.2584V26.2584Z" fill="white"/>
<path d="M18.3336 15.975L17.6836 16.6333C17.8449 16.6001 17.9927 16.5198 18.1083 16.4026C18.224 16.2855 18.3024 16.1366 18.3336 15.975Z" fill="white"/>
<path d="M5 22.45C5 22.671 5.0878 22.883 5.24408 23.0392C5.40036 23.1955 5.61232 23.2833 5.83333 23.2833H9.86667L10.1167 22.2L10.225 21.7416V21.7H6.66667V20H11.95L13.6167 18.3333H5.83333C5.61232 18.3333 5.40036 18.4211 5.24408 18.5774C5.0878 18.7337 5 18.9456 5 19.1666V22.45Z" fill="white"/>
<path d="M27.9087 13.8917L25.1004 11.0834C24.9757 10.9584 24.8277 10.8592 24.6646 10.7916C24.5016 10.7239 24.3268 10.6891 24.1503 10.6891C23.9739 10.6891 23.7991 10.7239 23.6361 10.7916C23.4731 10.8592 23.325 10.9584 23.2004 11.0834L11.7754 22.575L10.8337 26.5834C10.7984 26.7563 10.7976 26.9345 10.8314 27.1077C10.8651 27.2809 10.9326 27.4458 11.0302 27.5929C11.1277 27.74 11.2533 27.8664 11.3998 27.9648C11.5462 28.0633 11.7107 28.1319 11.8837 28.1667C11.9696 28.1753 12.0561 28.1753 12.142 28.1667C12.2441 28.1833 12.3482 28.1833 12.4504 28.1667L16.492 27.275L27.9087 15.8334C28.0334 15.7094 28.1324 15.5621 28.1999 15.3997C28.2675 15.2374 28.3022 15.0633 28.3022 14.8875C28.3022 14.7117 28.2675 14.5376 28.1999 14.3753C28.1324 14.213 28.0334 14.0656 27.9087 13.9417V13.8917ZM15.642 25.7584L12.592 26.4334L13.3337 23.4084L21.9004 14.75L24.2504 17.1L15.642 25.7584ZM25.192 16.1584L22.842 13.8084L24.167 12.5L26.5337 14.8667L25.192 16.1584Z" fill="white"/>
</svg>
