<svg width="45" height="38" viewBox="0 0 45 38" fill="none" xmlns="http://www.w3.org/2000/svg">
<path d="M42.9258 26.1972C43.1086 25.0075 43.1086 23.7925 42.9258 22.6028L44.7398 21.3456C44.9508 21.2022 45.0422 20.9069 44.9719 20.6284C44.5008 18.8059 43.6922 17.1522 42.6375 15.7853C42.4758 15.5744 42.2156 15.5237 42.0047 15.6672L40.1906 16.9244C39.4242 16.1397 38.5453 15.5322 37.5961 15.1272V12.6128C37.5961 12.3259 37.4273 12.0728 37.1953 12.0137C35.6273 11.5919 34.0312 11.6087 32.5406 12.0137C32.3086 12.0728 32.1398 12.3259 32.1398 12.6128V15.1272C31.1906 15.5322 30.3117 16.1397 29.5453 16.9244L27.7312 15.6672C27.5273 15.5237 27.2602 15.5744 27.0984 15.7853C26.0437 17.1522 25.2352 18.8059 24.7641 20.6284C24.6937 20.9069 24.7922 21.2022 24.9961 21.3456L26.8102 22.6028C26.6273 23.7925 26.6273 25.0075 26.8102 26.1972L24.9961 27.4544C24.7852 27.5978 24.6937 27.8931 24.7641 28.1716C25.2352 29.9941 26.0437 31.6394 27.0984 33.0147C27.2602 33.2256 27.5203 33.2762 27.7312 33.1328L29.5453 31.8756C30.3117 32.6603 31.1906 33.2678 32.1398 33.6728V36.1872C32.1398 36.4741 32.3086 36.7272 32.5406 36.7862C34.1086 37.2081 35.7047 37.1912 37.1953 36.7862C37.4273 36.7272 37.5961 36.4741 37.5961 36.1872V33.6728C38.5453 33.2678 39.4242 32.6603 40.1906 31.8756L42.0047 33.1328C42.2086 33.2762 42.4758 33.2256 42.6375 33.0147C43.6922 31.6478 44.5008 29.9941 44.9719 28.1716C45.0422 27.8931 44.9437 27.5978 44.7398 27.4544L42.9258 26.1972ZM34.875 28.4922C32.9906 28.4922 31.4648 26.6528 31.4648 24.4C31.4648 22.1472 32.9977 20.3078 34.875 20.3078C36.7523 20.3078 38.2852 22.1472 38.2852 24.4C38.2852 26.6528 36.7594 28.4922 34.875 28.4922ZM6.75 16.3C9.23203 16.3 11.25 13.8784 11.25 10.9C11.25 7.92155 9.23203 5.49999 6.75 5.49999C4.26797 5.49999 2.25 7.92155 2.25 10.9C2.25 13.8784 4.26797 16.3 6.75 16.3ZM22.5 19C22.6336 19 22.7602 18.9578 22.8937 18.9494C23.4773 17.1184 24.3352 15.3972 25.4461 13.9544C25.9664 13.2794 26.7047 12.8912 27.4781 12.8912C27.9633 12.8912 28.4414 13.0431 28.8562 13.3384L29.4117 13.7266C29.468 13.6844 29.5242 13.6506 29.5805 13.6084C30.0727 12.3766 30.368 11.0097 30.368 9.55843C30.368 4.33562 26.8453 0.108429 22.493 0.108429C18.1406 0.108429 14.625 4.32718 14.625 9.54999C14.625 14.7728 18.1477 19 22.5 19ZM29.8969 35.4109C29.7352 35.3097 29.5734 35.1916 29.4187 35.0819C28.8422 35.4869 28.343 35.9087 27.4852 35.9087C26.7187 35.9087 25.9805 35.5206 25.4531 34.8456C24.1664 33.175 23.182 31.1416 22.6266 28.9731C21.8742 26.0622 24.3773 24.7797 24.4406 24.7291C24.4336 24.5097 24.4336 24.2903 24.4406 24.0709L23.8852 23.6828C23.618 23.4972 23.393 23.2609 23.1961 22.9994C22.9641 23.0162 22.7391 23.05 22.507 23.05C20.7773 23.05 19.1602 22.5437 17.6906 21.7H17.107C12.6281 21.7 9 26.0537 9 31.42V33.85C9 36.0859 10.5117 37.9 12.375 37.9H30.3328C30.0727 37.3937 29.8969 36.82 29.8969 36.1872V35.4109ZM12.1711 20.5694C11.3555 19.5991 10.2375 19 9 19H4.5C2.01797 19 0 21.4216 0 24.4V27.1C0 28.5934 1.00547 29.8 2.25 29.8H6.88359C7.32656 25.8006 9.3375 22.4341 12.1711 20.5694Z" fill="#FF4961"/>
</svg>
