<svg width="113" height="82" viewBox="0 0 113 82" fill="none" xmlns="http://www.w3.org/2000/svg">
<path d="M106.373 0.564584C95.6223 1.12611 74.2543 3.17 61.0632 10.6017C60.1529 11.1144 59.6369 12.0263 59.6369 12.9796V78.6783C59.6369 80.7637 62.1147 82.0818 64.204 81.114C77.7758 74.8271 97.4036 73.1118 107.109 72.6424C110.422 72.4817 112.998 70.0369 112.998 67.1065V6.10764C113 2.91 109.987 0.376807 106.373 0.564584ZM51.9349 10.6017C38.7457 3.17 17.3777 1.12792 6.62698 0.564584C3.01333 0.376807 0 2.91 0 6.10764V67.1083C0 70.0406 2.57585 72.4853 5.88934 72.6442C15.5983 73.1136 35.236 74.8307 48.8078 81.1212C50.8912 82.0872 53.3611 80.771 53.3611 78.691V12.9471C53.3611 11.9919 52.8471 11.1163 51.9349 10.6017Z" fill="#0D7195"/>
</svg>
