<svg width="47" height="40" viewBox="0 0 47 40" fill="none" xmlns="http://www.w3.org/2000/svg">
<path d="M16.45 20C21.642 20 25.85 15.5234 25.85 10C25.85 4.47656 21.642 0 16.45 0C11.258 0 7.05 4.47656 7.05 10C7.05 15.5234 11.258 20 16.45 20ZM23.03 22.5H21.8036C20.1733 23.2969 18.3594 23.75 16.45 23.75C14.5406 23.75 12.7341 23.2969 11.0964 22.5H9.87C4.42094 22.5 0 27.2031 0 33V36.25C0 38.3203 1.57891 40 3.525 40H29.375C31.3211 40 32.9 38.3203 32.9 36.25V33C32.9 27.2031 28.4791 22.5 23.03 22.5ZM46.7503 12.4688L44.7088 10.2734C44.3709 9.90625 43.8202 9.90625 43.475 10.2656L35.7788 18.3906L32.4373 14.8125C32.0995 14.4453 31.5488 14.4453 31.2036 14.8047L29.14 16.9844C28.7948 17.3438 28.7948 17.9297 29.1327 18.2969L35.1325 24.7266C35.4703 25.0938 36.0211 25.0938 36.3663 24.7344L46.743 13.7812C47.0808 13.4141 47.0881 12.8281 46.7503 12.4688Z" fill="#FF9149"/>
</svg>
