<svg width="38" height="38" viewBox="0 0 38 38" fill="none" xmlns="http://www.w3.org/2000/svg">
<path d="M0 18.7119V3.5625C0 1.59496 1.59496 0 3.5625 0H18.7119C19.6567 4.94057e-06 20.5628 0.375342 21.2309 1.04344L36.9566 16.7691C38.3478 18.1603 38.3478 20.4159 36.9566 21.8072L21.8072 36.9566C20.4159 38.3478 18.1603 38.3478 16.7691 36.9566L1.04344 21.2309C0.375342 20.5628 4.94057e-06 19.6567 0 18.7119H0ZM8.3125 4.75C6.34496 4.75 4.75 6.34496 4.75 8.3125C4.75 10.28 6.34496 11.875 8.3125 11.875C10.28 11.875 11.875 10.28 11.875 8.3125C11.875 6.34496 10.28 4.75 8.3125 4.75Z" fill="#28D094"/>
</svg>
