<svg width="34" height="39" viewBox="0 0 34 39" fill="none" xmlns="http://www.w3.org/2000/svg">
<path d="M17 21.9375C22.2793 21.9375 26.5625 17.0244 26.5625 10.9688C26.5625 4.91309 22.2793 0 17 0C11.7207 0 7.4375 4.91309 7.4375 10.9688C7.4375 17.0244 11.7207 21.9375 17 21.9375ZM25.5 24.375H21.841C20.3668 25.152 18.7266 25.5938 17 25.5938C15.2734 25.5938 13.6398 25.152 12.159 24.375H8.5C3.80508 24.375 0 28.7396 0 34.125V35.3438C0 37.3623 1.42773 39 3.1875 39H30.8125C32.5723 39 34 37.3623 34 35.3438V34.125C34 28.7396 30.1949 24.375 25.5 24.375Z" fill="#1E9FF2"/>
</svg>
