<svg width="89" height="90" viewBox="0 0 89 90" fill="none" xmlns="http://www.w3.org/2000/svg">
<path d="M88.3466 70.0458L46.0789 89.6972C45.5804 89.897 45.0435 90 44.5011 90C43.9586 90 43.4218 89.897 42.9233 89.6972L0.653376 70.0458C-0.207037 69.6441 -0.207037 68.9851 0.653376 68.5813L10.7761 63.8845C11.2754 63.6847 11.8129 63.5817 12.3561 63.5817C12.8992 63.5817 13.4367 63.6847 13.936 63.8845L42.9233 77.3443C43.4215 77.5451 43.9584 77.6487 44.5011 77.6487C45.0437 77.6487 45.5806 77.5451 46.0789 77.3443L75.0662 63.8845C75.565 63.6846 76.1022 63.5816 76.645 63.5816C77.1878 63.5816 77.725 63.6846 78.2239 63.8845L88.3466 68.5914C89.2178 68.9851 89.2178 69.6441 88.3466 70.0458ZM88.3466 42.6179L78.2239 37.911C77.725 37.7112 77.1878 37.6081 76.645 37.6081C76.1022 37.6081 75.565 37.7112 75.0662 37.911L46.0789 51.3869C45.5801 51.5858 45.0434 51.6883 44.5011 51.6883C43.9588 51.6883 43.4221 51.5858 42.9233 51.3869L13.936 37.911C13.4367 37.7112 12.8992 37.6082 12.3561 37.6082C11.8129 37.6082 11.2754 37.7112 10.7761 37.911L0.653376 42.6179C-0.207037 43.0197 -0.207037 43.6807 0.653376 44.0865L42.9233 63.7338C43.4218 63.9336 43.9586 64.0366 44.5011 64.0366C45.0435 64.0366 45.5804 63.9336 46.0789 63.7338L88.3466 44.0865C89.2178 43.6807 89.2178 43.0217 88.3466 42.6179ZM0.653376 19.7724L42.9211 37.911C43.9354 38.2827 45.0625 38.2827 46.0767 37.911L88.3466 19.7724C89.207 19.3987 89.207 18.79 88.3466 18.4184L46.0767 0.281784C45.0633 -0.093928 43.9345 -0.093928 42.9211 0.281784L0.653376 18.4184C-0.217792 18.79 -0.217792 19.3987 0.653376 19.7724Z" fill="#0D7195"/>
</svg>
