<svg width="25" height="25" viewBox="0 0 25 25" fill="none" xmlns="http://www.w3.org/2000/svg">
<g clip-path="url(#clip0_527_102)">
<path d="M13.8475 2.28143e-06C14.215 2.28143e-06 14.5437 0.228752 14.6675 0.571252L15.55 3.0175C15.8662 3.09625 16.1375 3.175 16.3675 3.2575C16.6187 3.3475 16.9425 3.48375 17.3425 3.67L19.3975 2.5825C19.5652 2.49364 19.7572 2.46156 19.9448 2.49108C20.1323 2.52061 20.3052 2.61014 20.4375 2.74625L22.245 4.615C22.485 4.86375 22.5525 5.2275 22.4175 5.545L21.4537 7.80375C21.6137 8.0975 21.7412 8.34875 21.8387 8.55875C21.9437 8.7875 22.0737 9.1025 22.2287 9.50875L24.475 10.4713C24.8125 10.615 25.0212 10.9525 24.9987 11.3138L24.8337 13.9075C24.8224 14.076 24.7619 14.2375 24.6597 14.3719C24.5575 14.5064 24.4181 14.6078 24.2587 14.6638L22.1312 15.42C22.07 15.7138 22.0062 15.965 21.9387 16.1775C21.8298 16.5057 21.7055 16.8285 21.5662 17.145L22.635 19.5075C22.7104 19.6735 22.7307 19.8593 22.6929 20.0376C22.6551 20.216 22.5612 20.3776 22.425 20.4988L20.3925 22.3138C20.2586 22.4328 20.0916 22.5081 19.9138 22.5295C19.7359 22.551 19.5558 22.5175 19.3975 22.4338L17.3025 21.3238C16.9747 21.4973 16.6366 21.6505 16.29 21.7825L15.375 22.125L14.5625 24.375C14.5023 24.5398 14.3937 24.6825 14.2509 24.7844C14.1081 24.8864 13.9379 24.9428 13.7625 24.9463L11.3875 25C11.2074 25.0047 11.0303 24.9535 10.8806 24.8535C10.7308 24.7534 10.6158 24.6094 10.5512 24.4413L9.59372 21.9075C9.26703 21.7959 8.94357 21.675 8.62372 21.545C8.36212 21.4318 8.10446 21.3096 7.85122 21.1788L5.47622 22.1938C5.31973 22.2605 5.14721 22.2803 4.97965 22.2508C4.81209 22.2213 4.65673 22.1437 4.53247 22.0275L2.77497 20.3788C2.64412 20.2565 2.55501 20.0963 2.52024 19.9206C2.48547 19.745 2.5068 19.5629 2.58122 19.4L3.60247 17.175C3.46665 16.9115 3.34073 16.6429 3.22497 16.37C3.08985 16.0359 2.96479 15.6978 2.84997 15.3563L0.612471 14.675C0.430597 14.62 0.271964 14.5065 0.161208 14.3522C0.0504525 14.1978 -0.00622741 14.0112 -2.89448e-05 13.8213L0.0874711 11.42C0.0936993 11.2633 0.142642 11.1113 0.229006 10.9805C0.31537 10.8496 0.435869 10.7448 0.577471 10.6775L2.92497 9.55C3.03372 9.15125 3.12872 8.84125 3.21247 8.615C3.3304 8.31281 3.46135 8.01586 3.60497 7.725L2.58747 5.575C2.51025 5.41173 2.4868 5.22818 2.5205 5.05073C2.55419 4.87329 2.64328 4.71111 2.77497 4.5875L4.52997 2.93C4.653 2.81397 4.80693 2.73596 4.97326 2.70535C5.13958 2.67475 5.3112 2.69286 5.46747 2.7575L7.83997 3.7375C8.10247 3.5625 8.33997 3.42125 8.55497 3.3075C8.81122 3.17125 9.15372 3.02875 9.58497 2.875L10.41 0.573752C10.471 0.405338 10.5825 0.259854 10.7292 0.157166C10.876 0.0544783 11.0509 -0.000407813 11.23 2.28143e-06H13.8475ZM12.53 8.77375C10.4462 8.77375 8.75747 10.4425 8.75747 12.5025C8.75747 14.5625 10.4462 16.2325 12.53 16.2325C14.6125 16.2325 16.3012 14.5625 16.3012 12.5025C16.3012 10.4425 14.6137 8.77375 12.53 8.77375Z" fill="white"/>
</g>
<defs>
<clipPath id="clip0_527_102">
<rect width="25" height="25" fill="white"/>
</clipPath>
</defs>
</svg>
