<svg width="25" height="25" viewBox="0 0 25 25" fill="none" xmlns="http://www.w3.org/2000/svg">
<path d="M21.2569 17.0278C20.141 15.8188 18.7869 14.8539 17.2798 14.194C15.7726 13.534 14.1452 13.1934 12.4999 13.1934C10.8547 13.1934 9.22724 13.534 7.72012 14.194C6.21301 14.8539 4.85887 15.8188 3.743 17.0278C3.57072 17.2183 3.47435 17.4654 3.47217 17.7222V21.8889C3.47582 22.1627 3.58718 22.4241 3.78213 22.6165C3.97709 22.8088 4.23996 22.9167 4.51383 22.9167H20.4861C20.7623 22.9167 21.0273 22.8069 21.2226 22.6116C21.418 22.4162 21.5277 22.1513 21.5277 21.875V17.7083C21.5222 17.4563 21.426 17.2147 21.2569 17.0278V17.0278Z" fill="white"/>
<path d="M12.4998 11.8056C15.1845 11.8056 17.3609 9.62917 17.3609 6.94445C17.3609 4.25974 15.1845 2.08334 12.4998 2.08334C9.81507 2.08334 7.63867 4.25974 7.63867 6.94445C7.63867 9.62917 9.81507 11.8056 12.4998 11.8056Z" fill="white"/>
</svg>
