<svg width="26" height="25" viewBox="0 0 26 25" fill="none" xmlns="http://www.w3.org/2000/svg">
<path d="M7.23671 2.02564L5.37212 0.192308C2.24273 2.53846 0.182548 6.15385 0 10.2564H2.60782C2.80341 6.85897 4.57673 3.88462 7.23671 2.02564ZM23.3922 10.2564H26C25.8044 6.15385 23.7442 2.53846 20.6279 0.192308L18.7763 2.02564C21.4102 3.88462 23.1966 6.85897 23.3922 10.2564ZM20.8235 10.8974C20.8235 6.96154 18.6851 3.66667 14.9559 2.79487V1.92308C14.9559 0.858974 14.0822 0 13 0C11.9178 0 11.0441 0.858974 11.0441 1.92308V2.79487C7.30191 3.66667 5.17653 6.94872 5.17653 10.8974V17.3077L2.56871 19.8718V21.1538H23.4313V19.8718L20.8235 17.3077V10.8974ZM13 25C13.1825 25 13.3521 24.9872 13.5216 24.9487C14.3691 24.7692 15.0602 24.2051 15.3992 23.4359C15.5296 23.1282 15.5948 22.7949 15.5948 22.4359H10.3791C10.3922 23.8462 11.5527 25 13 25Z" fill="white"/>
</svg>
